<?xml version="1.0" encoding="UTF-8"?>
<svg viewBox="100 50 300 350" xmlns="http://www.w3.org/2000/svg">
  <g id="glibre">
    <g id="macron" transform="matrix(0.8414844870567323, 0, 0, 0.8414844870567323, 466.02239990234375, -317.1852722167969)">
      <path class="main" d="M -226.04393005371094 501.504638671875 L -200.2147674560547 522.2083129882812 C -211.14907836914062 536.2066650390625 -227.52011108398438 546.26318359375 -247.61410522460938 548.4764404296875 C -272.4909973144531 551.216552734375 -296.9399719238281 540.476806640625 -311.75140380859375 520.3029174804688 C -297.8028564453125 509.72064208984375 -300.5026550292969 512.0447998046875 -285.0860595703125 500.7257080078125 C -277.26898193359375 511.3730773925781 -264.3653564453125 517.041259765625 -251.2359161376953 515.5950927734375 C -240.5225830078125 514.4150390625 -231.814453125 509.0106201171875 -226.04393005371094 501.504638671875 Z " style="fill: rgb(0, 0, 0);" transform="matrix(1, 0, 0, 1, 8.722895472601522e-8, -21.39076670786494)"/>
    </g>
    <g id="G" transform="matrix(0.8414844870567323, 0, 0, 0.8414844870567323, 466.02239990234375, -317.1852722167969)">
      <path class="G main" d="M -238.61480712890625 691.8650512695312 L -144.78549194335938 691.8650512695312 L -144.78549194335938 785.6943969726562 L -169.1556396484375 761.32421875 C -192.36354064941406 785.1231689453125 -224.87710571289062 800.4757690429688 -262.7089538574219 800.4757690429688 C -309.5457763671875 800.4757690429688 -352.8247375488281 775.488525390625 -376.24310302734375 734.9267578125 C -426.70269775390625 647.5281372070312 -363.62823486328125 538.2800903320312 -262.7089538574219 538.2800903320312 C -216.3502197265625 538.2800903320312 -173.47718811035156 562.7596435546875 -149.898193359375 602.5917358398438 L -204.5625762939453 631.876220703125 C -217.25669860839844 612.1876220703125 -239.12841796875 600.1873168945312 -262.7089538574219 600.1873168945312 C -315.9718322753906 600.1873168945312 -349.2611083984375 657.8460693359375 -322.6296081542969 703.9730834960938 C -310.2699890136719 725.3807983398438 -287.4283752441406 738.5684814453125 -262.7089538574219 738.5684814453125 C -242.5384979248047 738.5684814453125 -225.2324676513672 730.2996215820312 -212.9603729248047 717.5194702148438 Z " style="fill: rgb(0, 0, 0);" transform="matrix(1, 0, 0, 1, 7.130256088765918, 2.3767521381377605)"/>
    </g>
  </g>
</svg>
