<?xml version="1.0" encoding="UTF-8" standalone="no"?>
<svg xmlns="http://www.w3.org/2000/svg" version="1.0" width="1000" height="1000" style="background-color:black">
	<!-- Licence CC0 v1.0 https://github.com/ruhrspora/diaspora_glyphs/tree/master/zeugs -->
	<path style="fill:white" d="m 639.63175,914.12882 c -27.66032,-38.60585 -70.81742,-98.88309 -95.90469,-133.94943 -25.6231,-35.81532 -46.46893,-63.76801 -47.56579,-63.78217 -1.12711,-0.0145 -41.44029,54.17592 -95.35539,128.18018 -51.37155,70.51296 -93.8302,128.20535 -94.35255,128.20535 -1.46103,0 -185.20635,-129.42308 -185.67929,-130.78529 -0.22881,-0.65905 41.30972,-61.63616 92.30787,-135.50467 50.99813,-73.86849 92.7239,-135.47045 92.7239,-136.8932 0,-2.29432 -16.52596,-8.09627 -146.15414,-51.3119 C 79.266913,491.48891 12.710376,469.25531 11.748258,468.87972 10.410038,468.35728 18.063091,442.7513 44.316231,359.91217 63.190728,300.35563 79.060349,251.14128 79.582068,250.54696 c 0.521706,-0.59431 70.385512,21.76213 155.252892,49.68096 84.86738,27.91885 155.0145,50.76093 155.88247,50.76017 0.86799,-7.7e-4 1.84981,-1.29946 2.18182,-2.886 0.33203,-1.58654 1.06418,-73.84629 1.627,-160.57723 0.56283,-86.73094 1.49006,-158.413767 2.06052,-159.29518 0.81678,-1.262002 24.65618,-1.5984 112.17971,-1.582938 61.12836,0.01029 111.77939,0.4435 112.55782,0.96154 0.98114,0.652963 2.65801,48.334926 5.46612,155.429388 4.6109,175.84892 4.71027,178.20547 7.51441,178.20547 1.08739,0 68.34702,-22.51358 149.4659,-50.03018 81.11887,-27.51661 147.88439,-49.58396 148.36785,-49.03856 1.63872,1.84897 68.17252,218.45389 67.35332,219.27307 -0.4474,0.44746 -68.14781,23.6327 -150.44541,51.52278 -113.20983,38.36608 -149.73038,51.23174 -150.03684,52.85593 -0.2263,1.19925 38.70522,59.37919 88.20891,131.82089 48.73766,71.32079 88.43504,130.20605 88.21645,130.85614 -0.50193,1.49311 -182.86093,135.81799 -184.38596,135.81799 -0.6192,0 -23.75699,-31.58656 -51.4173,-70.19238 z" />
</svg>
